<svg xmlns:dc="http://purl.org/dc/elements/1.1/" xmlns:cc="http://creativecommons.org/ns#" xmlns:rdf="http://www.w3.org/1999/02/22-rdf-syntax-ns#" xmlns:svg="http://www.w3.org/2000/svg" xmlns="http://www.w3.org/2000/svg" xmlns:sodipodi="http://sodipodi.sourceforge.net/DTD/sodipodi-0.dtd" xmlns:inkscape="http://www.inkscape.org/namespaces/inkscape" viewBox="0 0 100 125" version="1.1" x="0px" y="0px"><g transform="translate(0,-952.36216)"><path style="color:#000000;font-style:normal;font-variant:normal;font-weight:normal;font-stretch:normal;font-size:medium;line-height:normal;font-family:sans-serif;text-indent:0;text-align:start;text-decoration:none;text-decoration-line:none;text-decoration-style:solid;text-decoration-color:#000000;letter-spacing:normal;word-spacing:normal;text-transform:none;direction:ltr;block-progression:tb;writing-mode:lr-tb;baseline-shift:baseline;text-anchor:start;white-space:normal;clip-rule:nonzero;display:inline;overflow:visible;visibility:visible;opacity:1;isolation:auto;mix-blend-mode:normal;color-interpolation:sRGB;color-interpolation-filters:linearRGB;solid-color:#000000;solid-opacity:1;fill:#000000;fill-opacity:1;fill-rule:nonzero;stroke:none;stroke-width:0.88166183;stroke-linecap:round;stroke-linejoin:round;stroke-miterlimit:4;stroke-dasharray:none;stroke-dashoffset:0;stroke-opacity:1;color-rendering:auto;image-rendering:auto;shape-rendering:auto;text-rendering:auto;enable-background:accumulate" d="m 50.195923,970.37479 a 1.5043355,1.4942445 0 0 0 -1.233662,0.6716 c -2.738166,3.97129 -11.41726,7.34736 -21.347019,7.40573 a 1.5043355,1.4942445 0 0 0 -0.05872,0 1.5043355,1.4942445 0 0 0 -0.195288,-0.0204 1.5043355,1.4942445 0 0 0 -1.479615,1.19073 c 0,0 -1.500784,6.74949 -2.252609,14.91316 -0.75186,8.16384 -0.906861,17.72394 2.393134,23.89634 2.472138,4.6239 8.321259,8.3404 13.542966,11.1693 4.829697,2.6165 8.813031,4.2 9.439831,4.4467 a 1.5043355,1.4942445 0 0 0 0.995526,0.3123 1.5043355,1.4942445 0 0 0 1.007236,-0.3201 1.5043355,1.4942445 0 0 0 0.0068,0 c 0.652577,-0.2564 4.616108,-1.828 9.42812,-4.4349 5.221673,-2.8289 11.062976,-6.5454 13.535147,-11.1693 3.299996,-6.1724 3.14496,-15.7325 2.393101,-23.89634 -0.75186,-8.16367 -2.252575,-14.91316 -2.252575,-14.91316 a 1.5043355,1.4942445 0 0 0 -1.518673,-1.19073 1.5043355,1.4942445 0 0 0 -0.124957,0 c -9.540992,-0.038 -17.922886,-3.23493 -20.847293,-7.09347 a 1.5043355,1.4942445 0 0 0 -1.432774,-0.98003 z m -0.02731,3.89235 c 4.193405,4.42324 12.240236,6.9102 21.225987,7.12866 0.301127,1.42259 1.346772,6.51103 1.983234,13.42184 0.732468,7.95276 0.579685,17.28916 -2.057423,22.22156 -1.809181,3.384 -7.288758,7.2212 -12.32098,9.9474 -4.55544,2.468 -8.257313,3.9499 -8.998691,4.2435 -0.741413,-0.2936 -4.443251,-1.7755 -8.998691,-4.2435 -5.032223,-2.7262 -10.511765,-6.5634 -12.32098,-9.9474 -2.637109,-4.9324 -2.789823,-14.2688 -2.057423,-22.22156 0.636154,-6.90742 1.681356,-11.99165 1.983234,-13.41804 9.141742,-0.21772 17.311755,-2.70321 21.561733,-7.13246 z"/><path style="color:#000000;font-style:normal;font-variant:normal;font-weight:normal;font-stretch:normal;font-size:medium;line-height:normal;font-family:sans-serif;text-indent:0;text-align:start;text-decoration:none;text-decoration-line:none;text-decoration-style:solid;text-decoration-color:#000000;letter-spacing:normal;word-spacing:normal;text-transform:none;direction:ltr;block-progression:tb;writing-mode:lr-tb;baseline-shift:baseline;text-anchor:start;white-space:normal;clip-rule:nonzero;display:inline;overflow:visible;visibility:visible;opacity:1;isolation:auto;mix-blend-mode:normal;color-interpolation:sRGB;color-interpolation-filters:linearRGB;solid-color:#000000;solid-opacity:1;fill:#000000;fill-opacity:1;fill-rule:nonzero;stroke:none;stroke-width:1.5;stroke-linecap:round;stroke-linejoin:round;stroke-miterlimit:4;stroke-dasharray:none;stroke-dashoffset:0;stroke-opacity:1;color-rendering:auto;image-rendering:auto;shape-rendering:auto;text-rendering:auto;enable-background:accumulate" d="m 40.227597,996.04564 c -3.418615,0 -6.234351,2.7878 -6.234351,6.19916 0,3.4114 2.815736,6.1992 6.234351,6.1992 2.897915,0 5.340691,-2.011 6.02343,-4.6992 l 18.234353,0 a 1.5001477,1.5001477 0 1 0 0,-3 l -18.234353,0 c -0.682459,-2.68856 -3.125235,-4.69916 -6.02343,-4.69916 z m 0,3 c 1.809157,0 3.230475,1.42116 3.230475,3.19916 0,1.7782 -1.421318,3.1992 -3.230475,3.1992 -1.809158,0 -3.234376,-1.421 -3.234356,-3.1992 0,-1.778 1.425198,-3.19916 3.234356,-3.19916 z m 17.542953,6.63276 a 1.5001477,1.5001477 0 1 0 0,3 l 6.71483,0 a 1.5001477,1.5001477 0 1 0 0,-3 l -6.71483,0 z"/></g><text x="0" y="115" fill="#000000" font-size="5px" font-weight="bold" font-family="'Helvetica Neue', Helvetica, Arial-Unicode, Arial, Sans-serif">Created by P Thanga Vignesh</text><text x="0" y="120" fill="#000000" font-size="5px" font-weight="bold" font-family="'Helvetica Neue', Helvetica, Arial-Unicode, Arial, Sans-serif">from the Noun Project</text></svg>