<svg xmlns:dc="http://purl.org/dc/elements/1.1/" xmlns:cc="http://creativecommons.org/ns#" xmlns:rdf="http://www.w3.org/1999/02/22-rdf-syntax-ns#" xmlns:svg="http://www.w3.org/2000/svg" xmlns="http://www.w3.org/2000/svg" xmlns:sodipodi="http://sodipodi.sourceforge.net/DTD/sodipodi-0.dtd" xmlns:inkscape="http://www.inkscape.org/namespaces/inkscape" version="1.1" x="0px" y="0px" viewBox="0 0 100 125"><g transform="translate(0,-952.36218)"><path style="opacity:1;color:#000000;fill:#000000;stroke:none;stroke-width:3.99999856999999980;marker:none;visibility:visible;display:inline;overflow:visible;enable-background:accumulate" d="M 67 14 C 58.739418 14 52 20.73942 52 29 C 52 31.06408 52.440997 33.01501 53.1875 34.78125 L 56.875 33.21875 C 56.316483 31.89729 56 30.49682 56 29 C 56 22.90118 60.901178 18 67 18 C 73.098822 18 78 22.90118 78 29 C 78 30.49682 77.683517 31.89729 77.125 33.21875 L 80.8125 34.78125 C 81.559003 33.01501 82 31.06408 82 29 C 82 20.73942 75.260582 14 67 14 z M 67 21 C 62.605412 21 59 24.60541 59 29 L 59 49.5625 L 50.96875 54.3125 L 50 54.875 L 50 56.03125 L 50 67 L 50 67.625 L 50.375 68.15625 L 58 78.625 L 58 84 L 58 86 L 60 86 L 82 86 L 84 86 L 84 84 L 84 78.875 C 87.160067 76.5673 89.353735 73.91545 90.5 70.90625 C 91.770113 67.57205 91.999995 63.9832 92 60 L 92 54 L 92 52.84375 L 91 52.25 L 75 42.84375 L 75 29 C 75 24.60541 71.394588 21 67 21 z M 12 25 C 9.790861 25 8 26.790861 8 29 C 8 31.209139 9.790861 33 12 33 C 14.209139 33 16 31.209139 16 29 C 16 26.790861 14.209139 25 12 25 z M 23 25 C 20.790861 25 19 26.790861 19 29 C 19 31.209139 20.790861 33 23 33 C 25.209139 33 27 31.209139 27 29 C 27 26.790861 25.209139 25 23 25 z M 34 25 C 31.790861 25 30 26.790861 30 29 C 30 31.209139 31.790861 33 34 33 C 36.209139 33 38 31.209139 38 29 C 38 26.790861 36.209139 25 34 25 z M 45 25 C 42.790861 25 41 26.790861 41 29 C 41 31.209139 42.790861 33 45 33 C 47.209139 33 49 31.209139 49 29 C 49 26.790861 47.209139 25 45 25 z M 67 25 C 69.23283 25 71 26.76717 71 29 L 71 44 L 71 45.125 L 72 45.71875 L 88 55.125 L 88 60 C 87.999995 63.8109 87.73178 66.9227 86.75 69.5 C 85.76822 72.0773 84.122905 74.2149 80.90625 76.3125 L 80 76.90625 L 80 78 L 80 82 L 62 82 L 62 78 L 62 77.34375 L 61.625 76.8125 L 54 66.3125 L 54 57.1875 L 59 54.21875 L 59 60 L 63 60 L 63 29 C 63 26.76717 64.76717 25 67 25 z " transform="translate(0,952.36218)"/></g><text x="0" y="115" fill="#000000" font-size="5px" font-weight="bold" font-family="'Helvetica Neue', Helvetica, Arial-Unicode, Arial, Sans-serif">Created by emma mitchell</text><text x="0" y="120" fill="#000000" font-size="5px" font-weight="bold" font-family="'Helvetica Neue', Helvetica, Arial-Unicode, Arial, Sans-serif">from the Noun Project</text></svg>